<?xml version="1.0" encoding="UTF-8" standalone="no"?>
<svg
   viewBox="0 0 512 512"
   version="1.1"
   id="svg1"
   sodipodi:docname="circle-xmark.svg"
   inkscape:version="1.4.2 (ebf0e940d0, 2025-05-08)"
   xmlns:inkscape="http://www.inkscape.org/namespaces/inkscape"
   xmlns:sodipodi="http://sodipodi.sourceforge.net/DTD/sodipodi-0.dtd"
   xmlns="http://www.w3.org/2000/svg"
   xmlns:svg="http://www.w3.org/2000/svg">
  <defs
     id="defs1" />
  <sodipodi:namedview
     id="namedview1"
     pagecolor="#ffffff"
     bordercolor="#000000"
     borderopacity="0.25"
     inkscape:showpageshadow="2"
     inkscape:pageopacity="0.0"
     inkscape:pagecheckerboard="0"
     inkscape:deskcolor="#d1d1d1"
     inkscape:zoom="1.6914062"
     inkscape:cx="277.28406"
     inkscape:cy="240.03695"
     inkscape:window-width="1900"
     inkscape:window-height="1022"
     inkscape:window-x="0"
     inkscape:window-y="0"
     inkscape:window-maximized="1"
     inkscape:current-layer="svg1" />
  <!--! Font Awesome Free 6.7.2 by @fontawesome - https://fontawesome.com License - https://fontawesome.com/license/free (Icons: CC BY 4.0, Fonts: SIL OFL 1.1, Code: MIT License) Copyright 2024 Fonticons, Inc. -->
  <path
     d="M256 512A256 256 0 1 0 256 0a256 256 0 1 0 0 512zM175 175c9.4-9.4 24.6-9.4 33.9 0l47 47 47-47c9.4-9.4 24.6-9.4 33.9 0s9.4 24.6 0 33.9l-47 47 47 47c9.4 9.4 9.4 24.6 0 33.9s-24.6 9.4-33.9 0l-47-47-47 47c-9.4 9.4-24.6 9.4-33.9 0s-9.4-24.6 0-33.9l47-47-47-47c-9.4-9.4-9.4-24.6 0-33.9z"
     id="path1" />
  <path
     style="fill:#ff0000;stroke-width:0.678725"
     d="m 242.10624,511.35786 c -1.3007,-0.12754 -5.82356,-0.52207 -10.05081,-0.87674 -4.22725,-0.35467 -12.29855,-1.41531 -17.93621,-2.35698 C 167.20465,500.28787 123.32837,479.54168 87.913936,448.45 40.032136,406.41276 9.8709154,349.2898 2.0638809,285.85681 0.02569507,269.29633 0.02400216,242.62305 2.060091,226.14319 11.349091,150.95914 51.906802,85.067919 114.80059,42.981753 148.84542,20.20022 189.81041,5.6697656 232.05543,1.3909639 c 9.96875,-1.00968879 37.92039,-1.00968879 47.88914,0 58.79552,5.9551252 112.54597,30.8579161 153.94346,71.3226021 21.79571,21.304586 36.84495,41.807884 50.34369,68.588974 13.69404,27.16858 21.64636,53.4119 25.7982,85.13626 1.55868,11.90995 1.55545,47.13567 -0.005,59.1224 -6.50589,49.96199 -24.7014,92.97251 -55.65081,131.54735 -6.87799,8.57261 -20.94282,23.1777 -29.87483,31.02239 -39.4935,34.68581 -88.72824,56.28365 -141.63614,62.13162 -7.74536,0.8561 -35.57007,1.60387 -40.75647,1.0953 z M 197.17321,343.47524 c 6.27703,-1.0006 7.48091,-2.00613 33.85084,-28.27358 l 24.98248,-24.88539 24.97595,24.9387 c 29.43441,29.39051 27.8592,28.24618 38.88215,28.24618 6.50029,0 6.99116,-0.0884 10.74354,-1.93573 13.04506,-6.42206 17.50568,-23.38109 9.28772,-35.31138 -0.89596,-1.30069 -12.42068,-13.13582 -25.6105,-26.30028 l -23.98149,-23.93538 24.75994,-24.8406 c 25.45745,-25.54038 26.54011,-26.81072 28.22486,-33.11773 4.4765,-16.75818 -10.26041,-32.94518 -27.33161,-30.02101 -7.84971,1.3446 -8.40602,1.79448 -35.43649,28.65703 l -24.84662,24.69226 -24.52059,-24.54942 c -22.80118,-22.82797 -24.82937,-24.70304 -28.92411,-26.74035 -4.18143,-2.08044 -4.68834,-2.18908 -10.05081,-2.15411 -4.37894,0.0286 -6.37761,0.32924 -8.89902,1.33875 -6.95627,2.78511 -11.93915,7.96122 -14.24228,14.79455 -1.03181,3.06137 -1.22146,4.75913 -1.02736,9.19708 0.41169,9.41307 -0.0829,8.76294 28.48493,37.44403 l 24.87426,24.9729 -24.63922,24.72394 c -22.71381,22.7919 -24.7911,25.04468 -26.58289,28.82848 -1.83154,3.86778 -1.94366,4.48042 -1.94366,10.62045 0,6.13339 0.11088,6.74112 1.88885,10.35268 2.43629,4.94883 6.59444,9.13194 11.29146,11.35926 5.32686,2.52598 9.04764,2.9734 15.78967,1.89867 z"
     id="path2" />
</svg>
