<?xml version="1.0" encoding="UTF-8" standalone="no"?>
<svg
   viewBox="0 0 640 512"
   version="1.1"
   id="svg1"
   sodipodi:docname="microphone-slash.svg"
   inkscape:version="1.4.2 (ebf0e940d0, 2025-05-08)"
   xmlns:inkscape="http://www.inkscape.org/namespaces/inkscape"
   xmlns:sodipodi="http://sodipodi.sourceforge.net/DTD/sodipodi-0.dtd"
   xmlns="http://www.w3.org/2000/svg"
   xmlns:svg="http://www.w3.org/2000/svg">
  <defs
     id="defs1" />
  <sodipodi:namedview
     id="namedview1"
     pagecolor="#ffffff"
     bordercolor="#000000"
     borderopacity="0.25"
     inkscape:showpageshadow="2"
     inkscape:pageopacity="0.0"
     inkscape:pagecheckerboard="0"
     inkscape:deskcolor="#d1d1d1"
     inkscape:zoom="0.421875"
     inkscape:cx="320"
     inkscape:cy="256"
     inkscape:window-width="1021"
     inkscape:window-height="1022"
     inkscape:window-x="0"
     inkscape:window-y="0"
     inkscape:window-maximized="1"
     inkscape:current-layer="svg1" />
  <!--! Font Awesome Free 6.7.2 by @fontawesome - https://fontawesome.com License - https://fontawesome.com/license/free (Icons: CC BY 4.0, Fonts: SIL OFL 1.1, Code: MIT License) Copyright 2024 Fonticons, Inc. -->
  <path
     d="M38.8 5.1C28.4-3.1 13.3-1.2 5.1 9.2S-1.2 34.7 9.2 42.9l592 464c10.4 8.2 25.5 6.3 33.7-4.1s6.3-25.5-4.1-33.7L472.1 344.7c15.2-26 23.9-56.3 23.9-88.7l0-40c0-13.3-10.7-24-24-24s-24 10.7-24 24l0 40c0 21.2-5.1 41.1-14.2 58.7L416 300.8 416 96c0-53-43-96-96-96s-96 43-96 96l0 54.3L38.8 5.1zM344 430.4c20.4-2.8 39.7-9.1 57.3-18.2l-43.1-33.9C346.1 382 333.3 384 320 384c-70.7 0-128-57.3-128-128l0-8.7L144.7 210c-.5 1.9-.7 3.9-.7 6l0 40c0 89.1 66.2 162.7 152 174.4l0 33.6-48 0c-13.3 0-24 10.7-24 24s10.7 24 24 24l72 0 72 0c13.3 0 24-10.7 24-24s-10.7-24-24-24l-48 0 0-33.6z"
     id="path1"
     style="fill:#cccccc;fill-opacity:1" />
</svg>
